<svg xmlns="http://www.w3.org/2000/svg" width="4096" height="4096" stroke="none" fill="#4D0B5E" fill-rule="evenodd" viewBox="0 0 4096 4096" version="1.1">
  <path d="" stroke="none" fill="#4c4c4c" fill-rule="evenodd"/>
  <path d="M 1054 152.677 C 928.848 159.663, 810.643 191.233, 695 248.557 C 573.726 308.673, 464.625 394.828, 373.423 502.500 C 301.919 586.917, 243.724 685.199, 205.260 786.500 C 128.202 989.447, 126.491 1205.009, 200.483 1388.579 C 240.311 1487.391, 300.360 1573.807, 378.022 1644.075 C 398.747 1662.827, 392.330 1657.771, 564.500 1791.012 C 729.805 1918.940, 822.865 1993.748, 936.835 2090.319 L 959.171 2109.244 912.268 2156.372 C 884.563 2184.210, 861.968 2207.798, 857.065 2214 C 826.649 2252.475, 809.449 2293.831, 803.413 2343 C 801.414 2359.290, 801.943 2393.755, 804.434 2409.458 C 811.677 2455.121, 831.852 2499.679, 860.824 2534 C 873.379 2548.874, 1765.964 3440.508, 1776 3448.202 C 1839.847 3497.148, 1917.822 3513.413, 1995.280 3493.943 C 2026.765 3486.028, 2056.858 3471.365, 2085.872 3449.801 C 2092.326 3445.004, 2108.898 3429.318, 2136.135 3402.226 L 2176.770 3361.807 2190.296 3378.654 C 2222.682 3418.990, 2263.865 3471.468, 2307.498 3528 C 2317.898 3541.475, 2332.527 3560.375, 2340.007 3570 C 2347.486 3579.625, 2372.904 3612.475, 2396.491 3643 C 2420.078 3673.525, 2444.929 3705.352, 2451.717 3713.727 C 2513.883 3790.433, 2591.764 3852.406, 2681.904 3896.897 C 2767.114 3938.954, 2856.238 3962.634, 2961.500 3971.185 C 2982.311 3972.876, 3052.060 3972.868, 3074 3971.173 C 3214.738 3960.301, 3345.877 3919.885, 3468.233 3849.675 C 3547.482 3804.200, 3614.077 3752.994, 3681.046 3686.040 C 3753.030 3614.073, 3806.884 3542.099, 3856.542 3451.500 C 3863.042 3439.641, 3882.464 3400.130, 3887.755 3388 C 3931.832 3286.967, 3954.805 3198.455, 3964.709 3091.500 C 3966.916 3067.669, 3967.248 2985.038, 3965.230 2962 C 3956.081 2857.571, 3932.075 2769.123, 3890.027 2684.929 C 3855.908 2616.610, 3814.386 2558.588, 3762.008 2506.038 C 3734.677 2478.617, 3714.702 2461.508, 3671.380 2428.412 C 3668.564 2426.260, 3647.639 2410.060, 3624.880 2392.411 C 3602.121 2374.762, 3580.800 2358.251, 3577.500 2355.719 C 3566.624 2347.376, 3545.598 2331.098, 3540 2326.688 C 3536.975 2324.305, 3510.425 2303.657, 3481 2280.802 C 3451.575 2257.947, 3421.358 2234.355, 3413.850 2228.374 C 3406.343 2222.393, 3390.290 2209.625, 3378.177 2200 L 3356.154 2182.500 3396.442 2142 C 3438.896 2099.323, 3447.529 2089.296, 3460.152 2068 C 3484.478 2026.961, 3496.046 1985.096, 3496.088 1937.945 C 3496.106 1918.260, 3495.227 1908.263, 3491.916 1890.500 C 3484.149 1848.821, 3464.333 1807.249, 3436.622 1774.500 C 3424.049 1759.641, 2533.256 869.713, 2523.171 861.936 C 2496.143 841.093, 2464.408 824.923, 2434.216 816.612 C 2409.770 809.882, 2392.490 807.611, 2366 807.645 C 2341.855 807.676, 2325.790 809.606, 2303.823 815.114 C 2270.074 823.575, 2235.401 840.946, 2207 863.620 C 2202.325 867.353, 2177.125 891.636, 2151 917.583 L 2103.500 964.759 2098.326 958.630 C 2095.480 955.258, 2088.730 947.284, 2083.326 940.909 C 2064.846 919.109, 2059.289 912.463, 2031.909 879.427 C 1978.259 814.692, 1951.851 782.140, 1896.895 713 C 1873.445 683.498, 1827.119 623.954, 1737.014 507.500 C 1649.955 394.983, 1645.601 389.689, 1614.484 358.536 C 1560.232 304.220, 1503.055 263.351, 1432.500 228.456 C 1342.539 183.963, 1248.057 159.424, 1142 153.008 C 1127.228 152.114, 1068.070 151.892, 1054 152.677 M 1074 273.143 C 908.967 277.302, 740.036 340.754, 599 451.558 C 544.823 494.121, 494.123 544.418, 450.376 599 C 373.917 694.395, 318.883 804.177, 289.960 919 C 266.268 1013.058, 260.815 1109.366, 274.051 1200 C 288.858 1301.393, 326.488 1394.227, 384.554 1472.616 C 412.648 1510.542, 450.369 1549.187, 489.500 1580.133 C 499.758 1588.245, 556.771 1632.452, 572.394 1644.407 C 575.202 1646.556, 596.096 1662.756, 618.825 1680.407 C 641.554 1698.058, 661.373 1713.400, 662.868 1714.500 C 664.363 1715.600, 671.372 1721, 678.445 1726.500 C 685.518 1732, 693.598 1738.261, 696.402 1740.413 C 699.206 1742.566, 712.476 1752.916, 725.891 1763.413 C 739.307 1773.911, 752.357 1784.097, 754.891 1786.050 C 763.231 1792.472, 818.183 1836.128, 834 1848.896 C 865.204 1874.084, 871.054 1878.838, 900.500 1902.935 C 1010.693 1993.111, 1154.866 2116.926, 1237 2191.919 C 1242.775 2197.192, 1251.994 2205.554, 1257.486 2210.503 C 1271.409 2223.047, 1326.230 2273.192, 1333.500 2280.033 C 1336.800 2283.139, 1346.700 2292.366, 1355.500 2300.539 C 1364.300 2308.711, 1374.650 2318.379, 1378.500 2322.022 C 1382.350 2325.666, 1394.500 2337.137, 1405.500 2347.514 C 1426.522 2367.344, 1428.712 2369.438, 1470.950 2410.061 C 1544.213 2480.523, 1628.940 2565.383, 1720.997 2660.500 C 1739.654 2679.778, 1787.738 2730.542, 1811.453 2756 C 1823.494 2768.925, 1836.092 2782.425, 1839.450 2786 C 1892.239 2842.205, 2000.020 2962.946, 2067.078 3041 C 2110.430 3091.460, 2173.502 3166.323, 2195.144 3193.007 C 2197.148 3195.478, 2205.624 3205.773, 2213.981 3215.883 C 2222.338 3225.994, 2232.469 3238.369, 2236.494 3243.383 C 2240.520 3248.398, 2250.894 3261.275, 2259.547 3272 C 2292.979 3313.435, 2322.750 3350.937, 2353.621 3390.500 C 2378.830 3422.807, 2394.370 3442.861, 2488.454 3564.500 C 2550.977 3645.333, 2558.955 3654.984, 2583.981 3680.052 C 2627.480 3723.625, 2674.787 3758.048, 2728.558 3785.252 C 2800.524 3821.662, 2876.646 3842.702, 2963.500 3850.188 C 2983.610 3851.922, 3052.590 3851.918, 3073 3850.182 C 3209.750 3838.550, 3337.872 3793.443, 3455.500 3715.517 C 3523.216 3670.656, 3571.881 3628.367, 3634.467 3560 C 3636.732 3557.525, 3645.542 3547.116, 3654.043 3536.870 C 3688.527 3495.306, 3721.311 3446.889, 3748.751 3397 C 3754.869 3385.876, 3772.190 3350.632, 3778.109 3337.264 C 3798.718 3290.712, 3816.354 3238.007, 3827.385 3190 C 3845.115 3112.839, 3850.693 3031.926, 3843.413 2957.500 C 3836.844 2890.342, 3821.077 2827.788, 3795.525 2767.500 C 3793.984 2763.864, 3792.446 2760.558, 3783.432 2741.500 C 3755.533 2682.513, 3708.916 2620.012, 3658.500 2574.003 C 3638.868 2556.086, 3633.003 2551.344, 3575 2506.475 C 3546.675 2484.564, 3492.736 2442.756, 3455.137 2413.568 C 3417.537 2384.381, 3385.303 2359.375, 3383.507 2358 C 3363.508 2342.695, 3297.627 2290.351, 3252.479 2253.896 C 3219.229 2227.049, 3208.133 2217.913, 3156.647 2175 C 3131.902 2154.375, 3110.046 2136.165, 3108.078 2134.534 C 3102.775 2130.138, 3072.973 2104.933, 3069.500 2101.907 C 3067.850 2100.470, 3058.175 2092.159, 3048 2083.439 C 3011.631 2052.270, 2977.817 2022.950, 2976 2021.009 C 2975.725 2020.715, 2970.325 2015.990, 2964 2010.508 C 2957.675 2005.026, 2936.075 1985.926, 2916 1968.063 C 2760.133 1829.373, 2604.477 1680.972, 2455.470 1529 C 2432.917 1505.997, 2419.325 1491.937, 2367.020 1437.500 C 2337.664 1406.948, 2284.325 1349.931, 2244.936 1307 C 2217.353 1276.936, 2166.938 1221.184, 2155.423 1208.012 C 2151.356 1203.358, 2150.268 1202.137, 2135.358 1185.500 C 2106.822 1153.656, 2040.911 1077.628, 2001.420 1031 C 1921.059 936.119, 1854.270 854.178, 1769.937 747 C 1762.091 737.028, 1728.169 693.334, 1686.481 639.500 C 1680.944 632.350, 1669.439 617.500, 1660.913 606.500 C 1644.560 585.400, 1614.002 545.918, 1588.160 512.500 C 1552.114 465.887, 1526.340 438.439, 1491.114 409.148 C 1395.004 329.234, 1273.147 282.345, 1140 274.047 C 1116.686 272.593, 1103.150 272.408, 1074 273.143 M 1062.500 499.125 C 993.872 501.074, 923.318 515.582, 859 540.972 C 718.636 596.382, 604.291 706.494, 543.805 844.500 C 497.348 950.497, 482.310 1070.707, 500.585 1190 C 523.088 1336.900, 593.341 1474.783, 700.568 1582.500 C 728.596 1610.656, 732.353 1613.882, 831 1694.501 C 957.093 1797.550, 998.467 1831.626, 1035.500 1862.926 C 1067.789 1890.217, 1104.608 1921.471, 1108.554 1924.938 C 1110.783 1926.897, 1113.933 1929.628, 1115.554 1931.006 C 1124.488 1938.606, 1139.953 1951.914, 1142.994 1954.617 C 1144.922 1956.332, 1161.125 1970.488, 1179 1986.075 C 1231.549 2031.898, 1260.243 2057.437, 1321 2112.461 C 1497.244 2272.076, 1689.057 2459.551, 1851.025 2630.500 C 1856.757 2636.550, 1865.103 2645.325, 1869.571 2650 C 1886.341 2667.545, 1932.343 2716.989, 1976.566 2765 C 2020.289 2812.469, 2097.218 2898.743, 2149.552 2959 C 2231.434 3053.277, 2283.171 3115.098, 2408.986 3269 C 2490.961 3369.275, 2503.331 3384.069, 2518.939 3400.500 C 2594.940 3480.506, 2682.093 3539.734, 2780.742 3578.419 C 2844.182 3603.296, 2905.592 3617.660, 2976.500 3624.207 C 2998.180 3626.209, 3063.003 3625.884, 3085.500 3623.660 C 3229.932 3609.385, 3353.231 3552.272, 3450.522 3454.580 C 3557.926 3346.733, 3617.689 3202.557, 3620.298 3045 C 3622.212 2929.354, 3592.677 2810.551, 3536.470 2707.805 C 3497.219 2636.057, 3448.571 2573.974, 3387.500 2517.693 C 3371.729 2503.159, 3365.768 2498.210, 3253.500 2406.448 C 3204.550 2366.439, 3161.125 2330.909, 3157 2327.493 C 3137.730 2311.532, 3068.577 2253.822, 3061 2247.379 C 2997.275 2193.183, 2952.830 2154.938, 2920 2126.046 C 2873.061 2084.737, 2824.314 2041.204, 2789.500 2009.505 C 2765.531 1987.680, 2731.016 1956.102, 2725.500 1950.950 C 2722.200 1947.868, 2708.925 1935.510, 2696 1923.488 C 2669.039 1898.411, 2667.042 1896.530, 2619.500 1851.480 C 2523.085 1760.117, 2389.630 1627.102, 2289.934 1523 C 2235.981 1466.664, 2168.245 1394.128, 2119.976 1341 C 2087.953 1305.753, 2061.206 1276.060, 2042.508 1255 C 2035.916 1247.575, 2029.110 1239.925, 2027.384 1238 C 2006.343 1214.533, 1952.147 1152.366, 1920.613 1115.526 C 1917.801 1112.241, 1913.901 1107.741, 1911.946 1105.526 C 1909.992 1103.312, 1900.992 1092.725, 1891.947 1082 C 1882.901 1071.275, 1874.528 1061.375, 1873.339 1060 C 1867.018 1052.688, 1818.456 994.740, 1814.986 990.368 C 1812.784 987.593, 1771.482 937.399, 1757 919.898 C 1753.975 916.242, 1749.162 910.382, 1746.304 906.876 C 1670.329 813.659, 1619.078 751.403, 1608.514 739.500 C 1595.267 724.573, 1562.844 691.859, 1549.500 679.956 C 1439.360 581.715, 1302.798 519.452, 1161.500 503.055 C 1128.697 499.248, 1099.274 498.080, 1062.500 499.125 M 1063 619.730 C 964.322 624.282, 873.897 655.693, 799 711.435 C 779.148 726.210, 766.643 737.128, 747.497 756.403 C 703.234 800.962, 669.768 852.604, 646.340 912.500 C 631.605 950.173, 621.323 993.094, 616.395 1037.500 C 614.241 1056.915, 613.438 1105.721, 614.937 1126.152 C 620.430 1201.028, 639.711 1272.077, 672.560 1338.500 C 705.764 1405.638, 751.469 1466.620, 805.701 1516.144 C 823.333 1532.245, 834.609 1541.691, 888.422 1585.441 C 910.284 1603.215, 1038.889 1708.521, 1045 1713.653 C 1049.125 1717.117, 1065.105 1730.424, 1080.512 1743.225 C 1095.918 1756.026, 1113.018 1770.304, 1118.512 1774.954 C 1124.005 1779.603, 1134.125 1788.149, 1141 1793.944 C 1220.101 1860.620, 1334.686 1961.302, 1416.964 2036.424 C 1469 2083.935, 1499.314 2112.084, 1556.505 2166 C 1602.941 2209.778, 1650.230 2255.528, 1707.411 2312 C 1829.990 2433.056, 1927.935 2534.237, 2038.011 2653.520 C 2054.243 2671.109, 2072.213 2690.675, 2077.945 2697 C 2083.677 2703.325, 2092.711 2713.225, 2098.019 2719 C 2123.086 2746.270, 2196.303 2828.694, 2236.591 2875 C 2298.562 2946.226, 2405.805 3073.166, 2428 3101.566 C 2429.375 3103.325, 2448.529 3126.755, 2470.564 3153.632 C 2492.599 3180.510, 2512.849 3205.240, 2515.564 3208.588 C 2544.253 3243.971, 2589.441 3298.557, 2596.992 3306.950 C 2623.989 3336.956, 2652.836 3363.526, 2683.500 3386.629 C 2769.831 3451.673, 2867.676 3490.854, 2973 3502.555 C 2992.377 3504.707, 3043.091 3505.581, 3063.648 3504.117 C 3183.985 3495.544, 3291.240 3446.519, 3370.519 3363.851 C 3444.673 3286.526, 3488.329 3188.087, 3498.174 3076 C 3500.227 3052.625, 3499.721 3005.411, 3497.159 2981.316 C 3491.358 2926.755, 3479.109 2876.927, 3459.371 2827.590 C 3424.092 2739.409, 3369.018 2662.042, 3295.467 2597.341 C 3288.189 2590.939, 3247.171 2557.192, 3170.469 2494.500 C 3167.105 2491.750, 3158.587 2484.775, 3151.541 2479 C 3144.494 2473.225, 3137.046 2467.150, 3134.988 2465.500 C 3131.381 2462.607, 3114.684 2448.949, 3099.536 2436.500 C 3095.520 2433.200, 3086.220 2425.569, 3078.868 2419.543 C 3060.878 2404.797, 2989.555 2345.251, 2974.098 2332.074 C 2967.277 2326.258, 2954.902 2315.702, 2946.598 2308.616 C 2938.294 2301.529, 2929.048 2293.654, 2926.051 2291.116 C 2919.486 2285.554, 2912.686 2279.689, 2912 2278.994 C 2911.725 2278.716, 2904.975 2272.879, 2897 2266.024 C 2889.025 2259.169, 2871.925 2244.328, 2859 2233.043 C 2846.075 2221.759, 2834.150 2211.351, 2832.500 2209.914 C 2827.053 2205.171, 2792.510 2174.561, 2792 2174.025 C 2791.725 2173.736, 2787.911 2170.350, 2783.524 2166.500 C 2751.260 2138.183, 2657.054 2052.470, 2616.534 2014.565 C 2553.187 1955.306, 2540.528 1943.288, 2480 1884.944 C 2411.988 1819.387, 2314.256 1721.888, 2249.505 1655 C 2240.187 1645.375, 2226.903 1631.650, 2219.985 1624.500 C 2205.333 1609.358, 2173.167 1575.562, 2151 1552.020 C 2142.475 1542.966, 2131.875 1531.720, 2127.446 1527.029 C 1982.973 1374.042, 1818.388 1185.727, 1662.443 994.983 C 1643.774 972.148, 1626.700 951.283, 1624.500 948.616 C 1622.300 945.948, 1619.150 942.074, 1617.500 940.006 C 1615.007 936.882, 1582.010 896.494, 1559.897 869.500 C 1532.666 836.258, 1516.907 817.939, 1502.695 803 C 1493.537 793.375, 1485.247 784.846, 1484.272 784.048 C 1483.298 783.249, 1478.900 779.240, 1474.500 775.140 C 1458.595 760.317, 1436.528 742.425, 1416.360 728 C 1334.752 669.631, 1239.422 632.858, 1143 622.552 C 1115.002 619.560, 1087.623 618.594, 1063 619.730 M 2348.500 929.076 C 2325.457 932.241, 2302.597 942.074, 2284.272 956.706 C 2279.998 960.119, 2255.412 984.021, 2229.638 1009.822 L 2182.776 1056.732 2187.638 1062.203 C 2190.312 1065.213, 2203.750 1080.431, 2217.500 1096.021 C 2340.611 1235.607, 2463.923 1366.783, 2602 1505.040 C 2673.373 1576.507, 2713.167 1615.483, 2767.500 1667.138 C 2921.218 1813.281, 3061.837 1938.624, 3225.428 2075.323 L 3262.355 2106.180 3303.014 2065.302 C 3325.813 2042.379, 3346.233 2020.961, 3349.502 2016.541 C 3359.945 2002.420, 3368.193 1984.829, 3371.969 1968.627 C 3380.397 1932.466, 3374.275 1897.153, 3353.990 1864.920 C 3349.226 1857.349, 3303.534 1811.320, 2901.096 1408.680 C 2599.720 1107.154, 2450.723 958.753, 2445 954.410 C 2430.112 943.113, 2410.840 934.494, 2391.500 930.484 C 2381.958 928.505, 2358.297 927.731, 2348.500 929.076 M 1001.886 2237.750 C 947.601 2292.218, 944.221 2296.138, 935.246 2315.019 C 926.594 2333.223, 922.853 2350.272, 922.853 2371.500 C 922.853 2399.044, 929.604 2421.709, 944.745 2445 C 949.594 2452.459, 1005.088 2508.340, 1397.886 2901.307 C 1644.074 3147.601, 1848.650 3351.489, 1852.500 3354.392 C 1867.560 3365.748, 1882.743 3372.968, 1901.310 3377.604 C 1915.133 3381.056, 1939.093 3381.983, 1953 3379.605 C 1973.006 3376.183, 1992.865 3367.964, 2009.334 3356.289 C 2014.820 3352.400, 2031.079 3336.963, 2058.874 3309.252 C 2096.259 3271.981, 2100.115 3267.836, 2098.874 3266.262 C 2098.118 3265.304, 2086.495 3251.240, 2073.044 3235.010 C 1981.510 3124.559, 1857.368 2982.988, 1759.552 2877.503 C 1665.842 2776.447, 1598.818 2706.795, 1505.509 2613.499 C 1448.629 2556.627, 1431.652 2539.934, 1383.474 2493.505 C 1323.509 2435.716, 1278.595 2393.482, 1217.500 2337.436 C 1152.733 2278.022, 1052.901 2189, 1051.039 2189 C 1050.727 2189, 1028.609 2210.938, 1001.886 2237.750"/>
</svg>